<svg class="watch_svg" id="Layer_5" data-name="Layer 5" xmlns="http://www.w3.org/2000/svg" viewBox="0 0 629.11 629.11">
<defs>
<style>
				.cls-1 {
				                  fill: #ae6e43;
				                }
				
				                .cls-1,
				                .cls-2,
				                .cls-3,
				                .cls-4,
				                .cls-5,
				                .cls-6,
				                .cls-7 {
				                  stroke-width: 0px;
				                }
				
				                .cls-8 {
				                  fill: #21140a;
				                }
				
				                .cls-8,
				                .cls-9,
				                .cls-10,
				                .cls-11 {
				                  stroke-miterlimit: 10;
				                }
				
				                .cls-8,
				                .cls-9,
				                .cls-11 {
				                  stroke-width: 2px;
				                }
				
				                .cls-8,
				                .cls-10 {
				                  stroke: #3c2415;
				                }
				
				                .cls-9 {
				                  fill: #3d2c20;
				                }
				
				                .cls-9,
				                .cls-11 {
				                  stroke: #160a01;
				                }
				
				                .cls-3 {
				                  fill: none;
				                }
				
				                .cls-4 {
				                  fill: #ddd;
				                }
				
				                .cls-5 {
				                  fill: #2d1603;
				                }
				
				                .cls-6 {
				                  fill: #fff;
				                }
				
				                .cls-7,
				                .cls-10 {
				                  fill: #f5bf9d;
				                }
				
				                .cls-10 {
				                  stroke-width: 3px;
				                }
				
				                .cls-11 {
				                  fill: #5e4b3e;
				                }
			</style>
</defs>
<g id="BG-Fill">
<path class="cls-10" d="M314.55,34.96c-154.41,0-279.59,125.17-279.59,279.59s125.18,279.59,279.59,279.59,279.6-125.17,279.6-279.59S468.97,34.96,314.55,34.96ZM314.55,578.13c-145.56,0-263.58-118-263.58-263.58S168.99,50.98,314.55,50.98s263.58,118,263.58,263.58-118,263.58-263.58,263.58Z"></path>
<path class="cls-1" d="M314.55,20.22C151.99,20.22,20.22,151.99,20.22,314.55s131.77,294.33,294.33,294.33,294.34-131.77,294.34-294.33S477.11,20.22,314.55,20.22ZM314.55,594.15c-154.41,0-279.59-125.17-279.59-279.59S160.14,34.96,314.55,34.96s279.6,125.17,279.6,279.59-125.18,279.59-279.6,279.59Z"></path>
<circle class="cls-8" cx="314.55" cy="314.55" r="267.96"></circle>
</g>
<g id="Ring-4">
<path class="cls-4" d="M314.55,218.2c-53.49,0-96.86,43.37-96.86,96.86s43.37,96.86,96.86,96.86,96.86-43.37,96.86-96.86-43.37-96.86-96.86-96.86ZM314.55,370.74c-30.88,0-55.9-25.03-55.9-55.9s25.02-55.91,55.9-55.91,55.9,25.03,55.9,55.91-25.02,55.9-55.9,55.9Z"></path>
<g>
<path class="cls-2" d="M314.26,234.23c.4,5.53-1.43,8.74-5.04,9-3.18.23-5.55-2.59-5.99-7.98-.39-5.46,1.74-8.63,5.05-8.87,3.43-.25,5.6,2.67,5.98,7.85ZM305.44,235.11c.31,4.23,1.78,6.54,3.78,6.4,2.25-.16,3.14-2.87,2.84-7.03-.29-4.01-1.51-6.56-3.78-6.4-1.93.14-3.16,2.59-2.84,7.03Z"></path>
<path class="cls-2" d="M327.12,235.19c-.48,5.53-2.8,8.4-6.4,8.09-3.18-.28-5.07-3.44-4.65-8.82.47-5.45,3.08-8.25,6.39-7.97,3.43.3,5.12,3.52,4.67,8.7ZM318.27,234.67c-.37,4.23.72,6.74,2.73,6.92,2.25.2,3.56-2.34,3.92-6.49.35-4-.45-6.72-2.73-6.92-1.93-.17-3.53,2.06-3.92,6.49Z"></path>
<path class="cls-2" d="M355.88,238.67l-5.62-2.7-2.38,3.51c.36.12.7.22,1.24.49,1.13.54,2.14,1.34,2.79,2.31.84,1.21,1.18,2.94.29,4.79-1.38,2.88-4.7,3.93-7.89,2.4-1.61-.77-2.75-1.88-3.23-2.67l1.23-1.28c.44.66,1.42,1.69,2.76,2.33,1.88.9,4.07.45,5.02-1.52.89-1.91.28-3.88-2.67-5.29-.84-.4-1.54-.63-2.11-.82l4.34-6.61,7.04,3.38-.8,1.68Z"></path>
<path class="cls-2" d="M367.47,246.25l-5.11-3.56-2.91,3.08c.34.17.66.33,1.15.68,1.03.72,1.9,1.66,2.38,2.73.64,1.33.7,3.09-.48,4.78-1.82,2.62-5.27,3.13-8.18,1.11-1.46-1.02-2.42-2.29-2.77-3.15l1.41-1.07c.33.72,1.13,1.89,2.35,2.74,1.71,1.19,3.95,1.1,5.2-.7,1.19-1.75.89-3.79-1.79-5.65-.76-.53-1.42-.87-1.96-1.15l5.34-5.83,6.41,4.46-1.06,1.53Z"></path>
<path class="cls-2" d="M388.13,269.19l-3.54-5.12-3.81,1.87c.25.28.5.54.84,1.04.71,1.03,1.2,2.22,1.28,3.39.13,1.47-.43,3.13-2.12,4.31-2.62,1.81-6.03,1.09-8.04-1.83-1.01-1.47-1.46-2.99-1.49-3.92l1.7-.5c.06.79.4,2.17,1.24,3.39,1.19,1.71,3.32,2.41,5.11,1.17,1.72-1.22,2.16-3.23.3-5.92-.53-.76-1.03-1.31-1.43-1.76l7.04-3.59,4.44,6.42-1.53,1.06Z"></path>
<path class="cls-2" d="M389.39,285.16c-5.01,2.39-8.66,1.85-10.22-1.42-1.37-2.88.4-6.12,5.25-8.48,4.94-2.36,8.68-1.52,10.11,1.47,1.48,3.11-.44,6.19-5.14,8.43ZM385.35,277.26c-3.83,1.83-5.45,4.04-4.59,5.86.97,2.04,3.82,1.88,7.58.09,3.63-1.73,5.57-3.79,4.59-5.86-.83-1.75-3.57-2-7.58-.09Z"></path>
<path class="cls-2" d="M386.29,310.03l4.43-.37-.64-7.56,1.45-.12,11,6.39.2,2.38-10.11.85.19,2.28-1.73.14-.19-2.28-4.43.37-.18-2.08ZM392.45,309.51l5.43-.46c.85-.07,1.7-.12,2.56-.14v-.08c-1-.42-1.73-.76-2.52-1.15l-5.87-3.51h-.05s.45,5.34.45,5.34Z"></path>
<path class="cls-2" d="M400.31,325.54l.46-6.21-4.13-.94c.02.38.05.73,0,1.33-.09,1.25-.46,2.48-1.14,3.44-.82,1.22-2.3,2.17-4.36,2.02-3.18-.24-5.37-2.94-5.1-6.47.13-1.78.75-3.24,1.31-3.98l1.64.68c-.45.65-1.05,1.94-1.16,3.41-.16,2.08,1.06,3.96,3.24,4.12,2.11.13,3.71-1.16,3.96-4.41.07-.93.02-1.66,0-2.27l7.73,1.64-.58,7.79-1.85-.14Z"></path>
<path class="cls-2" d="M379.1,346.27l4.03,1.88,3.2-6.88,1.32.62,6.37,11-1.01,2.16-9.2-4.29-.96,2.07-1.57-.73.96-2.07-4.03-1.88.88-1.89ZM384.7,348.88l4.94,2.3c.77.36,1.54.74,2.29,1.15l.03-.07c-.65-.86-1.12-1.52-1.61-2.25l-3.34-5.96-.05-.02-2.26,4.85Z"></path>
<path class="cls-2" d="M377.86,364.15c-4.59-3.12-5.97-6.54-3.94-9.53,1.79-2.64,5.48-2.75,9.97.24,4.53,3.07,5.7,6.72,3.84,9.46-1.93,2.85-5.57,2.75-9.87-.17ZM382.63,356.68c-3.51-2.38-6.24-2.66-7.37-.99-1.27,1.87.31,4.24,3.76,6.58,3.33,2.26,6.09,2.88,7.37.99,1.09-1.6-.08-4.09-3.76-6.58Z"></path>
<path class="cls-2" d="M361.47,372.54c-.74.04-2.3.37-3.55,1.25-2.31,1.64-1.98,3.63-1.18,4.72,1.34,1.85,3.59,1.46,5.33.22l1-.71.96,1.35-1,.71c-1.31.93-2.49,2.78-1.37,4.36.76,1.07,2.1,1.53,3.76.35,1.06-.76,1.75-1.95,2.04-2.77l1.4.98c-.33,1.01-1.32,2.48-2.76,3.49-2.62,1.86-4.91,1.15-6.06-.47-.97-1.37-.98-3.12.23-4.88l-.03-.04c-1.87.83-4.08.55-5.4-1.31-1.51-2.13-1.18-5.17,2.02-7.44,1.5-1.06,3.14-1.52,4.1-1.56l.5,1.74Z"></path>
<path class="cls-2" d="M348.58,394.08l5.59-2.74-1.28-4.04c-.32.21-.61.41-1.15.68-1.13.55-2.38.86-3.55.76-1.47-.09-3.04-.89-3.94-2.74-1.4-2.87-.18-6.12,3-7.68,1.6-.78,3.17-1,4.09-.89l.25,1.75c-.79-.06-2.2.07-3.53.73-1.87.92-2.88,2.92-1.91,4.88.95,1.88,2.88,2.62,5.81,1.18.83-.41,1.44-.82,1.95-1.15l2.5,7.5-7.01,3.44-.82-1.67Z"></path>
<path class="cls-2" d="M326.49,388.19c-.66-.34-2.17-.83-3.7-.68-2.83.27-3.53,2.15-3.37,3.5.24,2.27,2.39,3.05,4.51,2.85l1.22-.12.16,1.65-1.23.12c-1.6.15-3.55,1.17-3.36,3.1.12,1.3,1.06,2.37,3.08,2.18,1.3-.13,2.49-.82,3.15-1.39l.73,1.54c-.79.71-2.38,1.49-4.13,1.66-3.2.31-4.83-1.45-5.02-3.43-.16-1.67.7-3.2,2.63-4.11v-.05c-2.04-.21-3.81-1.55-4.03-3.83-.25-2.6,1.56-5.07,5.46-5.44,1.82-.18,3.48.25,4.33.69l-.44,1.76Z"></path>
<path class="cls-2" d="M303.92,394.29c.35-5.54,2.6-8.47,6.2-8.24,3.18.2,5.15,3.32,4.86,8.71-.34,5.46-2.89,8.32-6.2,8.11-3.43-.22-5.2-3.4-4.87-8.58ZM312.79,394.59c.27-4.24-.89-6.72-2.89-6.85-2.26-.14-3.5,2.42-3.76,6.58-.25,4.01.61,6.7,2.89,6.85,1.93.12,3.48-2.14,3.76-6.58Z"></path>
<path class="cls-2" d="M289.91,382.32l-.56,1.24-2.27.82c-5.43,1.9-8.02,3.05-9.05,5.29-.68,1.51-.58,3.24,1.64,4.24,1.35.61,2.78.43,3.73.16v1.71c-1.42.41-3.18.39-4.89-.39-3.21-1.44-3.56-4.25-2.6-6.38,1.24-2.75,4.23-4.07,8.73-5.68l1.69-.56.02-.05-6.69-3.01.75-1.67,9.5,4.28Z"></path>
<path class="cls-2" d="M263.29,384.18l5.2,3.44,2.84-3.15c-.34-.17-.66-.32-1.16-.65-1.05-.69-1.94-1.62-2.45-2.67-.67-1.32-.77-3.07.37-4.79,1.76-2.66,5.19-3.25,8.15-1.3,1.49.98,2.47,2.24,2.84,3.08l-1.39,1.1c-.34-.71-1.18-1.86-2.41-2.68-1.74-1.15-3.98-1-5.18.82-1.14,1.77-.8,3.81,1.92,5.61.77.51,1.44.83,1.98,1.1l-5.21,5.95-6.51-4.31,1.03-1.55Z"></path>
<path class="cls-2" d="M259.54,361.11l-1.1.8-2.38-.41c-5.66-1.04-8.47-1.32-10.48.11-1.34.97-2.1,2.53-.67,4.5.87,1.2,2.21,1.75,3.16,1.99l-.85,1.48c-1.44-.35-2.95-1.24-4.06-2.76-2.07-2.84-.99-5.46.9-6.83,2.44-1.77,5.69-1.44,10.4-.61l1.74.35.04-.03-4.32-5.93,1.48-1.08,6.13,8.43Z"></path>
<path class="cls-2" d="M240.48,345.82c4.95-2.5,8.62-2.05,10.25,1.18,1.44,2.85-.25,6.12-5.05,8.6-4.89,2.47-8.64,1.72-10.13-1.24-1.55-3.07.3-6.2,4.94-8.55ZM244.7,353.62c3.79-1.91,5.35-4.17,4.44-5.96-1.02-2.02-3.86-1.79-7.58.09-3.59,1.81-5.47,3.92-4.44,5.96.87,1.73,3.61,1.92,7.58-.09Z"></path>
<path class="cls-2" d="M229.01,324.42v.05s1.83,2.66,1.83,2.66l-1.63.61-2.28-3.34-.2-1.87,16.23-1.75.23,2.12-14.18,1.53Z"></path>
<path class="cls-2" d="M228.59,305.69l-.32,6.22,4.16.84c-.03-.38-.06-.73-.03-1.33.06-1.25.4-2.49,1.06-3.47.79-1.24,2.25-2.22,4.31-2.12,3.18.16,5.44,2.82,5.26,6.35-.09,1.78-.67,3.26-1.21,4.01l-1.65-.64c.43-.66,1-1.96,1.08-3.44.1-2.08-1.16-3.93-3.34-4.04-2.11-.08-3.69,1.25-3.85,4.51-.05.93.02,1.66.06,2.27l-7.77-1.45.4-7.8,1.86.1Z"></path>
<path class="cls-2" d="M235.4,280.65l-.02.05.27,3.22-1.71-.28-.32-4.03.75-1.73,14.97,6.54-.86,1.96-13.08-5.71Z"></path>
<path class="cls-2" d="M250.12,266.56c4.67,3.01,6.12,6.4,4.16,9.44-1.73,2.68-5.41,2.88-9.98,0-4.6-2.97-5.85-6.59-4.06-9.37,1.86-2.89,5.5-2.88,9.87-.06ZM245.53,274.15c3.57,2.3,6.3,2.51,7.39.82,1.23-1.9-.41-4.24-3.91-6.5-3.38-2.18-6.15-2.74-7.39-.82-1.05,1.63.17,4.09,3.91,6.5Z"></path>
<path class="cls-2" d="M271.11,246.97c3.32,4.45,3.5,8.14.6,10.3-2.56,1.91-6.07.8-9.34-3.5-3.27-4.39-3.18-8.22-.52-10.2,2.76-2.06,6.16-.77,9.27,3.4ZM264.16,252.47c2.54,3.4,5.02,4.56,6.63,3.35,1.81-1.35,1.1-4.11-1.39-7.45-2.4-3.22-4.8-4.72-6.64-3.35-1.55,1.16-1.27,3.89,1.39,7.45Z"></path>
<path class="cls-2" d="M278.66,235.95l-5.52,2.88,1.38,4.01c.31-.22.6-.43,1.13-.7,1.11-.58,2.35-.92,3.52-.85,1.47.05,3.06.82,4.01,2.64,1.47,2.83.33,6.12-2.81,7.75-1.58.82-3.15,1.07-4.07.99l-.29-1.75c.79.04,2.2-.13,3.51-.81,1.85-.96,2.8-2.99,1.79-4.93-1-1.86-2.94-2.55-5.84-1.04-.82.43-1.42.86-1.92,1.2l-2.68-7.44,6.93-3.61.86,1.65Z"></path>
</g>
<g>
<path class="cls-2" d="M251.67,316.04c0,.32,0,.65,0,.97h-5.44c0-.32,0-.65,0-.97s0-.65,0-.97h5.44c0,.32,0,.65,0,.97Z"></path>
<path class="cls-2" d="M382.87,316.04c0,.32,0,.65,0,.97h-5.44c0-.32,0-.65,0-.97s0-.65,0-.97h5.44c0,.32,0,.65,0,.97Z"></path>
<path class="cls-2" d="M315.53,247.74v5.44c-.32,0-.65,0-.97,0s-.65,0-.97,0v-5.44c.32,0,.65,0,.97,0s.65,0,.97,0Z"></path>
<path class="cls-2" d="M315.53,378.91v5.44c-.32,0-.65,0-.97,0s-.65,0-.97,0v-5.44c.32,0,.65,0,.97,0s.65,0,.97,0Z"></path>
<path class="cls-2" d="M260.87,283.28c-.34.56-.67,1.12-.98,1.69l-4.69-2.77c.32-.56.65-1.12.99-1.68l4.69,2.76Z"></path>
<path class="cls-2" d="M373.91,349.89c-.32.56-.65,1.12-.98,1.68l-4.69-2.76c.33-.56.66-1.11.98-1.68l4.69,2.76Z"></path>
<path class="cls-2" d="M283.46,370.71l-2.76,4.69c-.57-.32-1.12-.65-1.68-.98l2.76-4.69c.56.33,1.11.66,1.68.98Z"></path>
<path class="cls-2" d="M350.08,257.68l-2.76,4.69c-.56-.33-1.11-.66-1.68-.98l2.76-4.69c.57.32,1.12.65,1.68.98Z"></path>
<path class="cls-2" d="M284.03,261.07c-.57.31-1.13.63-1.69.96l-2.72-4.7c.56-.34,1.12-.66,1.69-.98l2.72,4.72Z"></path>
<path class="cls-2" d="M349.48,374.77c-.56.33-1.12.65-1.69.97l-2.72-4.71c.57-.31,1.13-.64,1.69-.97l2.72,4.71Z"></path>
<path class="cls-2" d="M260.54,348.26l-4.71,2.72c-.33-.56-.66-1.12-.97-1.69l4.71-2.72c.31.57.63,1.14.97,1.69Z"></path>
<path class="cls-2" d="M374.25,282.81l-4.7,2.72c-.32-.57-.64-1.14-.97-1.69l4.7-2.71c.34.56.66,1.12.97,1.69Z"></path>
<path class="cls-2" d="M252.07,308.91c-.02.16-.04.32-.05.49l-5.41-.6c.02-.17.04-.33.06-.49l5.4.6Z"></path>
<path class="cls-2" d="M382.49,323.28c-.02.17-.03.33-.06.49l-5.4-.59c.02-.16.04-.32.05-.49l5.41.59Z"></path>
<path class="cls-2" d="M307.9,378.57l-.59,5.41c-.17-.02-.32-.04-.48-.06l.59-5.4c.16.02.31.04.48.05Z"></path>
<path class="cls-2" d="M322.28,248.17l-.59,5.4c-.16-.02-.32-.04-.49-.05l.59-5.41c.17.02.33.03.49.06Z"></path>
<path class="cls-2" d="M264.35,278.18c-.1.13-.19.26-.29.39l-4.35-3.26c.1-.14.2-.26.29-.39l4.35,3.26Z"></path>
<path class="cls-2" d="M369.4,356.78c-.1.14-.19.26-.29.39l-4.34-3.26c.1-.13.19-.26.29-.39l4.34,3.26Z"></path>
<path class="cls-2" d="M277.07,366.54l-3.26,4.35c-.13-.11-.25-.19-.38-.29l3.25-4.35c.13.1.26.19.39.29Z"></path>
<path class="cls-2" d="M355.67,261.48l-3.25,4.35c-.13-.1-.26-.19-.39-.29l3.25-4.35c.14.1.26.19.39.29Z"></path>
<path class="cls-2" d="M289.57,258.33c-.16.06-.3.13-.45.19l-2.18-4.98c.15-.07.3-.14.45-.19l2.18,4.98Z"></path>
<path class="cls-2" d="M342.17,378.54c-.15.07-.29.14-.45.19l-2.18-4.98c.16-.06.3-.13.45-.19l2.18,4.98Z"></path>
<path class="cls-2" d="M257.03,341.48l-4.98,2.18c-.07-.15-.14-.29-.2-.45l4.98-2.18c.07.16.13.3.19.45Z"></path>
<path class="cls-2" d="M377.25,288.88l-4.98,2.18c-.06-.16-.13-.3-.19-.45l4.98-2.18c.07.15.14.29.19.45Z"></path>
<path class="cls-2" d="M253,303.12c-.04.16-.07.32-.1.49l-5.33-1.1c.03-.16.06-.31.1-.48l5.33,1.09Z"></path>
<path class="cls-2" d="M381.52,329.58c-.03.16-.06.31-.1.48l-5.33-1.1c.04-.16.07-.32.1-.48l5.33,1.1Z"></path>
<path class="cls-2" d="M302.12,377.68l-1.1,5.33c-.16-.03-.32-.06-.48-.1l1.1-5.32c.16.03.31.06.48.09Z"></path>
<path class="cls-2" d="M328.57,249.17l-1.1,5.32c-.16-.03-.32-.06-.48-.09l1.1-5.33c.16.03.31.06.48.1Z"></path>
<path class="cls-2" d="M268.1,273.67c-.12.12-.22.24-.33.36l-4.03-3.64c.11-.13.21-.25.33-.37l4.03,3.65Z"></path>
<path class="cls-2" d="M365.36,361.7c-.1.13-.21.24-.33.36l-4.02-3.64c.11-.12.21-.24.32-.36l4.03,3.64Z"></path>
<path class="cls-2" d="M272.54,362.83l-3.65,4.02c-.13-.11-.24-.21-.36-.32l3.65-4.03c.12.12.24.22.36.33Z"></path>
<path class="cls-2" d="M360.57,265.56l-3.65,4.03c-.12-.12-.24-.22-.36-.33l3.65-4.02c.13.1.24.21.36.32Z"></path>
<path class="cls-2" d="M295.04,256.25c-.16.05-.3.1-.46.15l-1.7-5.16c.16-.05.3-.1.46-.15l1.7,5.16Z"></path>
<path class="cls-2" d="M336.23,380.85c-.16.05-.31.1-.47.15l-1.7-5.16c.16-.05.31-.1.47-.15l1.7,5.16Z"></path>
<path class="cls-2" d="M254.9,336.01l-5.16,1.7c-.05-.16-.1-.31-.15-.46l5.16-1.7c.05.16.1.31.15.46Z"></path>
<path class="cls-2" d="M379.51,294.83l-5.16,1.7c-.05-.16-.1-.31-.15-.46l5.16-1.7c.05.16.1.31.15.46Z"></path>
<path class="cls-2" d="M254.79,296.45c-.06.16-.11.31-.16.47l-5.17-1.68c.05-.16.1-.31.15-.47l5.18,1.68Z"></path>
<path class="cls-2" d="M379.64,336.84c-.05.16-.1.31-.15.47l-5.18-1.68c.06-.16.11-.31.16-.47l5.17,1.68Z"></path>
<path class="cls-2" d="M295.42,375.96l-1.68,5.17c-.16-.05-.3-.1-.46-.15l1.68-5.18c.16.06.3.11.46.16Z"></path>
<path class="cls-2" d="M335.82,251.1l-1.68,5.18c-.16-.06-.31-.11-.47-.16l1.68-5.17c.16.05.31.1.47.15Z"></path>
<path class="cls-2" d="M273.02,268.84c-.13.1-.24.2-.36.32l-3.61-4.07c.12-.11.24-.22.37-.32l3.6,4.07Z"></path>
<path class="cls-2" d="M360.06,367c-.12.11-.23.21-.36.32l-3.61-4.07c.13-.11.25-.21.37-.32l3.6,4.07Z"></path>
<path class="cls-2" d="M267.66,357.94l-4.06,3.6c-.12-.12-.22-.23-.32-.36l4.06-3.6c.11.13.21.24.32.36Z"></path>
<path class="cls-2" d="M365.83,270.9l-4.07,3.61c-.11-.13-.21-.25-.32-.37l4.06-3.6c.12.12.22.23.33.36Z"></path>
<path class="cls-2" d="M301.72,254.48c-.16.03-.31.06-.47.1l-1.13-5.32c.16-.04.31-.07.47-.1l1.13,5.32Z"></path>
<path class="cls-2" d="M328.99,382.83c-.16.04-.31.07-.47.11l-1.13-5.33c.16-.03.31-.06.47-.1l1.13,5.32Z"></path>
<path class="cls-2" d="M253.08,329.36l-5.32,1.13c-.03-.16-.07-.32-.11-.48l5.33-1.13c.03.17.07.32.1.48Z"></path>
<path class="cls-2" d="M381.45,302.08l-5.33,1.13c-.03-.16-.06-.31-.1-.47l5.32-1.13c.04.16.07.31.11.47Z"></path>
<path class="cls-2" d="M257.29,290.03c-.07.15-.13.29-.19.44l-4.96-2.23c.06-.15.13-.29.2-.44l4.96,2.23Z"></path>
<path class="cls-2" d="M376.97,343.84c-.06.16-.13.3-.19.45l-4.96-2.23c.07-.15.14-.29.19-.44l4.96,2.22Z"></path>
<path class="cls-2" d="M288.98,373.51l-2.23,4.95c-.15-.06-.29-.13-.44-.19l2.23-4.95c.15.06.29.13.44.19Z"></path>
<path class="cls-2" d="M342.79,253.83l-2.22,4.96c-.15-.07-.29-.14-.44-.19l2.22-4.96c.15.06.29.13.44.19Z"></path>
<path class="cls-2" d="M278.44,264.56c-.14.1-.27.19-.4.28l-3.14-4.44c.14-.1.26-.19.4-.27l3.14,4.43Z"></path>
<path class="cls-2" d="M354.2,371.68c-.14.1-.26.19-.4.27l-3.14-4.43c.14-.1.26-.19.4-.28l3.14,4.44Z"></path>
<path class="cls-2" d="M263.36,352.55l-4.44,3.15c-.1-.14-.19-.26-.28-.4l4.44-3.14c.1.13.19.26.28.39Z"></path>
<path class="cls-2" d="M370.47,276.79l-4.44,3.15c-.09-.14-.18-.26-.27-.4l4.44-3.14c.09.13.19.26.27.39Z"></path>
<path class="cls-2" d="M308.54,253.45c-.17.02-.33.03-.49.05l-.54-5.41c.16-.02.32-.04.49-.05l.54,5.41Z"></path>
<path class="cls-2" d="M321.59,384c-.16.02-.32.04-.49.05l-.54-5.41c.16-.02.32-.03.48-.05l.55,5.41Z"></path>
<path class="cls-2" d="M252,322.54l-5.41.54c-.02-.16-.04-.31-.05-.48l5.41-.54c.02.16.03.32.05.48Z"></path>
<path class="cls-2" d="M382.56,309.49l-5.41.54c-.02-.16-.03-.32-.05-.48l5.41-.54c.02.16.04.31.05.48Z"></path>
</g>
</g>
<g id="Ring-3">
<g>
<path class="cls-9" d="M238.39,391.23l-45.58,45.58c-21.47-21.37-37.35-48.38-45.23-78.61l62.43-16.13c4.97,18.9,14.92,35.79,28.38,49.16Z"></path>
<path class="cls-9" d="M481.06,359.93c-8.01,29.53-23.7,55.91-44.76,76.88l-45.58-45.58c13.21-13.12,23.04-29.61,28.08-48.08l62.26,16.78Z"></path>
<path class="cls-11" d="M487.1,314.55c0,15.71-2.1,30.93-6.04,45.38l-62.26-16.78c2.5-9.11,3.84-18.7,3.84-28.6,0-9.17-1.14-18.07-3.29-26.56l62.43-16.13c3.47,13.65,5.32,27.96,5.32,42.69Z"></path>
<path class="cls-9" d="M481.78,271.86l-62.43,16.13c-4.82-19.06-14.69-36.1-28.12-49.6l45.58-45.58c21.44,21.52,37.24,48.68,44.97,79.05Z"></path>
<path class="cls-9" d="M237.88,238.39c-13.17,13.25-22.92,29.91-27.83,48.53l-62.26-16.77c7.88-29.68,23.47-56.22,44.51-77.34l45.58,45.58Z"></path>
<path class="cls-11" d="M286.57,418.96l-16.78,62.27c-29.53-7.91-55.95-23.46-76.98-44.42l45.58-45.58c13.17,13.08,29.69,22.8,48.17,27.73Z"></path>
<path class="cls-11" d="M436.81,192.81l-45.58,45.58c-13.2-13.29-29.82-23.15-48.43-28.17l16.77-62.27c29.68,8,56.19,23.71,77.24,44.86Z"></path>
<path class="cls-11" d="M436.3,436.81c-21.44,21.36-48.46,37.1-78.69,44.87l-16.13-62.44c18.9-4.85,35.81-14.69,49.24-28.01l45.58,45.58Z"></path>
<path class="cls-11" d="M287.39,209.93c-19.05,4.93-36.06,14.92-49.51,28.46l-45.58-45.58c21.46-21.56,48.59-37.48,78.96-45.32l16.13,62.44Z"></path>
<path class="cls-9" d="M357.61,481.69c-13.77,3.53-28.2,5.41-43.06,5.41s-30.48-2.04-44.76-5.87l16.78-62.27c8.93,2.4,18.3,3.66,27.98,3.66s18.32-1.18,26.93-3.38l16.13,62.44Z"></path>
<path class="cls-9" d="M359.57,147.94l-16.77,62.27c-9.01-2.43-18.47-3.73-28.25-3.73-5.39,0-10.7.4-15.88,1.16-3.82.56-7.59,1.32-11.28,2.28l-16.13-62.44c13.84-3.57,28.35-5.48,43.29-5.48s30.67,2.07,45.02,5.94Z"></path>
<path class="cls-11" d="M206.48,314.55c0,9.51,1.23,18.74,3.54,27.52l-62.43,16.13c-3.64-13.94-5.57-28.57-5.57-43.65s2.01-30.24,5.78-44.41l62.26,16.77c-2.33,8.82-3.57,18.08-3.57,27.64Z"></path>
</g>
<g>
<path class="cls-4" d="M311.18,186.57l-6.31-18.38,2.58-.04,3.02,9.05c.83,2.48,1.55,4.72,2.08,6.88h.05c.49-2.15,1.22-4.49,2-6.91l2.98-9.17,2.55-.04-6.32,18.57-2.63.04Z"></path>
<path class="cls-4" d="M325.25,168.44l-1.18,18.43-2.38-.15,1.18-18.43,2.38.15Z"></path>
<path class="cls-4" d="M371.89,200.02l3.1-19.17,2.29,1.18-1.61,9.4c-.44,2.58-.86,4.89-1.41,7.04l.05.03c1.44-1.66,3.19-3.38,5.03-5.15l6.96-6.68,2.26,1.17-14.33,13.39-2.34-1.21Z"></path>
<path class="cls-4" d="M392.81,190.65l-9.72,15.69-2.03-1.26,9.73-15.69,2.02,1.26Z"></path>
<path class="cls-4" d="M398.64,194.53l-10.46,15.21-1.96-1.35,10.46-15.21,1.96,1.35Z"></path>
<path class="cls-4" d="M422.57,245.51l12.44-14.92,1.37,2.18-6.18,7.27c-1.69,2-3.23,3.77-4.8,5.34l.03.05c2.09-.69,4.47-1.28,6.95-1.87l9.39-2.2,1.35,2.16-19.15,4.22-1.4-2.23Z"></path>
<path class="cls-4" d="M445.34,248.12l-16.37,8.53-1.1-2.11,16.37-8.53,1.1,2.11Z"></path>
<path class="cls-4" d="M448.37,254.43l-16.77,7.73-1-2.16,16.77-7.74,1,2.16Z"></path>
<path class="cls-4" d="M451.1,260.87l-17.12,6.92-.89-2.21,17.12-6.92.9,2.21Z"></path>
<path class="cls-4" d="M461.26,309.98l-18.45.77-.1-2.38,18.45-.77.1,2.38Z"></path>
<path class="cls-4" d="M442.61,324.26l4.17-2.2c1.6-.9,2.63-1.46,3.72-2v-.06c-1.05-.56-2.01-1.12-3.59-2.14l-3.97-2.37.1-2.74,9.12,6,9.33-5.08-.1,2.77-4.42,2.27c-1.23.64-2.18,1.12-3.19,1.58v.08c1.07.56,1.9,1.06,3.05,1.79l4.23,2.68-.1,2.74-8.77-5.96-9.69,5.39.1-2.77Z"></path>
<path class="cls-4" d="M422.85,383.8l4.71.05c1.83-.03,3.01-.03,4.22.02l.03-.05c-.65-.99-1.24-1.94-2.14-3.59l-2.36-3.97,1.4-2.36,5.16,9.62,10.61-.02-1.41,2.38-4.97-.11c-1.39-.02-2.45-.05-3.55-.13l-.04.07c.68,1.01,1.17,1.84,1.84,3.03l2.44,4.37-1.39,2.36-4.87-9.41-11.09.12,1.41-2.38Z"></path>
<path class="cls-4" d="M377.23,426.91l4.13,2.27c1.63.84,2.67,1.39,3.72,2.01l.04-.03c-.11-1.18-.17-2.3-.19-4.18l-.2-4.62,2.34-1.42v10.92s9.38,4.99,9.38,4.99l-2.37,1.43-4.33-2.44c-1.21-.68-2.14-1.2-3.07-1.79l-.07.04c.12,1.21.16,2.17.19,3.54l.09,5.01-2.34,1.42.14-10.6-9.83-5.12,2.37-1.43Z"></path>
<path class="cls-4" d="M379.11,446.7l-8.26-16.52,2.13-1.07,8.26,16.52-2.13,1.07Z"></path>
<path class="cls-4" d="M315.95,443.2l2.54,3.97c1.03,1.52,1.68,2.5,2.3,3.54h.05c.47-1.09.95-2.1,1.83-3.76l2.03-4.15,2.74-.12-5.21,9.59,5.83,8.86-2.76.12-2.63-4.21c-.74-1.17-1.3-2.08-1.84-3.04h-.08c-.47,1.12-.9,1.99-1.53,3.2l-2.32,4.44-2.74.12,5.2-9.23-6.18-9.21,2.76-.12Z"></path>
<path class="cls-4" d="M308.11,461.47l.64-18.45,2.38.08-.64,18.45-2.38-.08Z"></path>
<path class="cls-4" d="M301.16,461.01l1.52-18.41,2.38.2-1.52,18.41-2.38-.2Z"></path>
<path class="cls-4" d="M236.43,439.08l9.71-15.7,2.03,1.25-9.71,15.7-2.03-1.25Z"></path>
<path class="cls-4" d="M188.64,390.26l15.75-9.63,1.24,2.03-15.75,9.63-1.24-2.03Z"></path>
<path class="cls-4" d="M185.18,384.16l16.19-8.86,1.14,2.09-16.19,8.86-1.14-2.09Z"></path>
<path class="cls-4" d="M167.83,318.07l18.46-.57.07,2.38-18.46.57-.07-2.38Z"></path>
<path class="cls-4" d="M167.84,311.08l18.46.3-.04,2.38-18.46-.3.04-2.38Z"></path>
<path class="cls-4" d="M168.17,304.13l18.43,1.18-.15,2.38-18.43-1.18.15-2.38Z"></path>
<path class="cls-4" d="M182.95,249.84l16.62,8.06-1.04,2.14-16.62-8.06,1.04-2.15Z"></path>
<path class="cls-4" d="M203.08,251.3l-18.97-4.15,1.3-2.22,9.3,2.12c2.55.58,4.83,1.12,6.95,1.79l.03-.05c-1.58-1.53-3.2-3.37-4.86-5.3l-6.29-7.31,1.29-2.2,12.58,15.04-1.33,2.27Z"></path>
<path class="cls-4" d="M250.09,203.87l-14.34-13.1,2.24-1.27,6.99,6.5c1.92,1.78,3.62,3.4,5.12,5.04l.05-.03c-.6-2.12-1.08-4.52-1.55-7.02l-1.78-9.48,2.22-1.26,3.35,19.33-2.29,1.3Z"></path>
</g>
</g>
<g id="Ring-2">
<g>
<path class="cls-9" d="M142.01,314.55c0,15.08,1.93,29.72,5.57,43.65l-57.18,14.77c-4.86-18.67-7.44-38.24-7.44-58.43s2.71-40.7,7.8-59.77l57.03,15.37c-3.77,14.17-5.78,29.05-5.78,44.41Z"></path>
<path class="cls-11" d="M192.81,436.82l-41.76,41.76c-28.81-28.72-50.1-65-60.65-105.6l57.18-14.77c7.88,30.23,23.76,57.24,45.23,78.61Z"></path>
<path class="cls-9" d="M269.79,481.24l-15.35,57.02h-.01c-39.67-10.63-75.14-31.53-103.37-59.68l41.76-41.76c21.03,20.96,47.44,36.51,76.98,44.42Z"></path>
<path class="cls-11" d="M372.38,538.87c-18.48,4.76-37.87,7.28-57.83,7.28s-40.94-2.74-60.12-7.89l15.35-57.02c14.28,3.82,29.28,5.87,44.76,5.87s29.29-1.88,43.06-5.41l14.77,57.17Z"></path>
<path class="cls-9" d="M478.06,478.58c-28.78,28.69-65.08,49.85-105.68,60.29l-14.77-57.17c30.23-7.77,57.25-23.52,78.69-44.88l41.76,41.76Z"></path>
<path class="cls-11" d="M538.11,375.3c-10.75,39.66-31.78,75.09-60.05,103.28l-41.76-41.76c21.06-20.97,36.75-47.35,44.76-76.89l57.05,15.37Z"></path>
<path class="cls-9" d="M546.16,314.55c0,21.02-2.8,41.38-8.05,60.74l-57.05-15.37c3.94-14.45,6.04-29.67,6.04-45.38,0-14.74-1.85-29.04-5.32-42.7l57.18-14.77c4.69,18.38,7.19,37.63,7.19,57.47Z"></path>
<path class="cls-11" d="M538.96,257.09l-57.18,14.77c-7.73-30.38-23.53-57.54-44.97-79.06l41.76-41.76c28.78,28.87,49.99,65.3,60.39,106.04Z"></path>
<path class="cls-9" d="M478.57,151.04l-41.76,41.76c-21.05-21.15-47.56-36.86-77.24-44.86l15.37-57.02c39.81,10.72,75.37,31.78,103.63,60.13Z"></path>
<path class="cls-11" d="M374.94,90.91l-15.37,57.02c-14.35-3.87-29.44-5.94-45.02-5.94s-29.45,1.91-43.29,5.48l-14.77-57.18c18.55-4.79,38.02-7.34,58.06-7.34s41.14,2.76,60.39,7.96Z"></path>
<path class="cls-9" d="M271.26,147.48c-30.38,7.84-57.5,23.76-78.96,45.32l-41.76-41.76c28.81-28.89,65.21-50.23,105.95-60.74l14.77,57.18Z"></path>
<path class="cls-11" d="M192.29,192.8c-21.04,21.12-36.63,47.66-44.51,77.34l-57.03-15.37c10.59-39.82,31.55-75.41,59.79-103.74l41.76,41.76Z"></path>
</g>
<g>
<path class="cls-4" d="M313.35,122.15l-2.96-4.76c-1.2-1.82-1.96-3-2.68-4.25h-.07c-.58,1.29-1.16,2.49-2.23,4.45l-2.48,4.91-3.26.11,6.35-11.33-6.81-10.64,3.29-.11,3.07,5.05c.86,1.41,1.52,2.5,2.14,3.65h.1c.58-1.33,1.1-2.36,1.87-3.78l2.83-5.25,3.26-.11-6.33,10.91,7.21,11.05-3.29.11Z"></path>
<path class="cls-4" d="M322.77,100.39l-.7,21.97-2.84-.09.7-21.97,2.84.09Z"></path>
<path class="cls-4" d="M330.99,100.86l-1.54,21.93-2.83-.2,1.54-21.93,2.83.2Z"></path>
<path class="cls-4" d="M412.77,149.23l-.07-5.61c-.09-2.18-.12-3.58-.1-5.03l-.06-.03c-1.16.81-2.28,1.53-4.21,2.65l-4.67,2.92-2.84-1.59,11.3-6.41-.32-12.63,2.87,1.61v5.91c.02,1.65.02,2.92-.04,4.23l.09.05c1.18-.83,2.16-1.44,3.56-2.27l5.14-3.03,2.85,1.6-11.06,6.06.45,13.19-2.87-1.61Z"></path>
<path class="cls-4" d="M432.1,135.49l-11.98,18.44-2.38-1.55,11.98-18.44,2.38,1.55Z"></path>
<path class="cls-4" d="M486.62,228.82l2.97-4.76c1.1-1.88,1.83-3.08,2.63-4.28l-.03-.06c-1.41.05-2.74.06-4.98-.05l-5.5-.06-1.53-2.88,12.98.7,6.55-10.81,1.55,2.91-3.18,4.98c-.88,1.4-1.57,2.46-2.33,3.53l.05.09c1.44-.06,2.59-.05,4.22,0l5.96.23,1.53,2.88-12.59-.87-6.74,11.35-1.55-2.91Z"></path>
<path class="cls-4" d="M528.64,312.56l-21.98.37-.05-2.84,21.98-.37.05,2.84Z"></path>
<path class="cls-4" d="M506.19,329.19l4.99-2.57c1.91-1.05,3.15-1.71,4.45-2.33v-.06c-1.24-.68-2.38-1.35-4.25-2.59l-4.69-2.87.16-3.26,10.78,7.24,11.16-5.93-.16,3.29-5.29,2.65c-1.47.74-2.61,1.31-3.81,1.84v.1c1.27.68,2.25,1.28,3.61,2.17l5,3.24-.16,3.26-10.36-7.19-11.6,6.3.16-3.29Z"></path>
<path class="cls-4" d="M486.31,400.71l22.82,3.67-1.4,2.73-11.19-1.91c-3.07-.52-5.82-1.01-8.38-1.67l-.03.06c1.98,1.71,4.02,3.79,6.13,5.98l7.96,8.27-1.39,2.7-15.95-17.04,1.43-2.78Z"></path>
<path class="cls-4" d="M497.67,425.54l-18.87-11.27,1.45-2.44,18.87,11.27-1.46,2.44Z"></path>
<path class="cls-4" d="M493.27,432.5l-18.42-11.99,1.55-2.38,18.42,11.99-1.55,2.38Z"></path>
<path class="cls-4" d="M488.62,439.26l-17.96-12.68,1.64-2.32,17.96,12.68-1.64,2.32Z"></path>
<path class="cls-4" d="M417.75,476.77l17.74,14.82-2.6,1.63-8.65-7.36c-2.38-2.01-4.49-3.85-6.35-5.72l-.06.03c.82,2.48,1.52,5.32,2.22,8.27l2.61,11.18-2.57,1.61-5-22.8,2.65-1.66Z"></path>
<path class="cls-4" d="M414.81,503.91l-10.45-19.35,2.5-1.35,10.45,19.35-2.5,1.35Z"></path>
<path class="cls-4" d="M407.45,507.64l-9.69-19.74,2.55-1.25,9.69,19.73-2.55,1.25Z"></path>
<path class="cls-4" d="M320.71,506.79l7.72,21.79-3.06.08-3.69-10.73c-1.02-2.94-1.9-5.59-2.55-8.16h-.06c-.56,2.56-1.4,5.35-2.31,8.25l-3.45,10.95-3.03.07,7.31-22.16,3.13-.08Z"></path>
<path class="cls-4" d="M304.35,528.65l.85-21.96,2.83.11-.85,21.96-2.83-.11Z"></path>
<path class="cls-4" d="M216.97,480.45l-5.17,22.54-2.63-1.58,2.64-11.04c.72-3.03,1.39-5.74,2.22-8.26l-.06-.03c-1.84,1.86-4.05,3.77-6.37,5.72l-8.78,7.4-2.6-1.56,18.06-14.8,2.68,1.61Z"></path>
<path class="cls-4" d="M131.83,427.02l18.63-11.67,1.51,2.4-18.63,11.67-1.51-2.4Z"></path>
<path class="cls-4" d="M145.89,407.52l-15.92,16.76-1.46-2.7,7.9-8.16c2.16-2.24,4.13-4.23,6.11-5.97l-.03-.06c-2.53.66-5.4,1.18-8.39,1.68l-11.32,1.89-1.44-2.67,23.07-3.53,1.49,2.75Z"></path>
<path class="cls-4" d="M100.03,318.11l21.97-.52.07,2.84-21.97.52-.07-2.84Z"></path>
<path class="cls-4" d="M100.04,309.88l21.97.31-.04,2.84-21.97-.31.04-2.84Z"></path>
<path class="cls-4" d="M100.37,301.67l21.95,1.15-.15,2.83-21.95-1.15.15-2.83Z"></path>
<path class="cls-4" d="M126.89,210.58l19.28,10.56-1.36,2.49-19.28-10.55,1.36-2.49Z"></path>
<path class="cls-4" d="M131.02,203.48l18.86,11.28-1.46,2.43-18.86-11.28,1.45-2.43Z"></path>
<path class="cls-4" d="M209.34,127.66l10.9,19.09-2.46,1.41-10.9-19.09,2.46-1.41Z"></path>
</g>
</g>
<g id="Ring-1">
<g>
<path class="cls-4" d="M331.41,556.1c-.53-.3-1.74-.76-3-.7-2.32.11-2.96,1.63-2.89,2.73.11,1.87,1.83,2.58,3.58,2.5l1-.05.07,1.35-1.01.05c-1.31.06-2.94.82-2.87,2.4.05,1.07.78,1.98,2.44,1.9,1.07-.05,2.07-.57,2.62-1.01l.54,1.29c-.67.55-2,1.13-3.44,1.2-2.63.13-3.89-1.37-3.97-2.99-.07-1.37.7-2.58,2.31-3.26v-.04c-1.66-.25-3.05-1.41-3.15-3.28-.1-2.13,1.46-4.08,4.67-4.24,1.5-.07,2.83.33,3.51.73l-.42,1.42Z"></path>
<path class="cls-4" d="M312.67,561.36c-.03-4.54,1.63-7.06,4.59-7.08,2.61-.02,4.39,2.41,4.47,6.83.03,4.48-1.88,6.96-4.59,6.98-2.81.02-4.44-2.47-4.47-6.73ZM319.92,561.1c-.03-3.47-1.11-5.43-2.75-5.42-1.85.01-2.72,2.18-2.69,5.59.02,3.29.88,5.44,2.75,5.42,1.58-.01,2.72-1.95,2.69-5.59Z"></path>
<path class="cls-4" d="M196.56,525.45c-.28-.54-1.05-1.59-2.13-2.22-2-1.17-3.37-.26-3.92.71-.93,1.62.12,3.17,1.63,4.05l.87.51-.69,1.17-.87-.51c-1.13-.66-2.91-.92-3.71.45-.54.92-.43,2.08,1.01,2.92.92.54,2.05.65,2.75.59l-.26,1.37c-.86.09-2.29-.15-3.53-.88-2.27-1.33-2.51-3.28-1.69-4.68.69-1.19,2-1.78,3.72-1.47l.02-.03c-1.25-1.11-1.78-2.85-.84-4.47,1.08-1.84,3.46-2.62,6.23-1,1.29.76,2.19,1.83,2.54,2.54l-1.13.96Z"></path>
<path class="cls-4" d="M176.03,524.31l4.29,2.76,2.29-2.61c-.28-.13-.55-.25-.96-.52-.86-.56-1.61-1.3-2.03-2.16-.56-1.07-.66-2.5.25-3.92,1.41-2.2,4.21-2.71,6.65-1.15,1.23.79,2.04,1.8,2.36,2.49l-1.12.91c-.29-.58-.98-1.51-2-2.17-1.43-.92-3.26-.78-4.23.72-.91,1.46-.61,3.12,1.63,4.57.64.41,1.19.66,1.63.88l-4.19,4.93-5.38-3.45.82-1.28Z"></path>
<path class="cls-4" d="M107.84,435.46l-3.13,1.86,3.17,5.34-1.02.61-10.38-.77-1-1.68,7.14-4.24-.96-1.61,1.22-.72.96,1.61,3.13-1.86.87,1.47ZM103.49,438.04l-3.83,2.28c-.6.36-1.21.7-1.83,1.02l.03.05c.88-.05,1.54-.06,2.26-.05l5.57.49.04-.02-2.24-3.76Z"></path>
<path class="cls-4" d="M95.29,426.86c4-2.15,7.01-1.85,8.41.76,1.24,2.3-.08,5.01-3.96,7.14-3.95,2.12-7.03,1.59-8.32-.8-1.33-2.48.12-5.08,3.86-7.09ZM98.9,433.15c3.06-1.64,4.29-3.52,3.51-4.97-.88-1.63-3.19-1.39-6.2.23-2.9,1.56-4.4,3.32-3.51,4.97.75,1.39,3,1.49,6.2-.23Z"></path>
<path class="cls-4" d="M74.87,315l-3.64.04.07,6.21-1.19.02-8.6-5.86-.02-1.95,8.3-.1-.02-1.87,1.42-.02.02,1.87,3.64-.04.02,1.71ZM69.81,315.06l-4.46.05c-.7,0-1.4,0-2.1-.04v.06c.79.4,1.37.72,1.99,1.09l4.58,3.21h.04s-.05-4.38-.05-4.38Z"></path>
<path class="cls-4" d="M63.27,302.01l-.16,5.09,3.41.62c-.03-.31-.06-.6-.05-1.09.03-1.03.29-2.05.81-2.85.63-1.03,1.81-1.86,3.49-1.81,2.61.08,4.5,2.22,4.41,5.11-.04,1.46-.49,2.68-.92,3.3l-1.36-.49c.35-.55.79-1.62.83-2.83.05-1.71-1.01-3.2-2.8-3.25-1.73-.03-3,1.08-3.08,3.75-.02.76.04,1.36.09,1.85l-6.38-1.06.2-6.39,1.52.05Z"></path>
<path class="cls-4" d="M97.5,186.32l-2.51,4.43,2.73,2.14c.11-.29.22-.56.46-.99.51-.89,1.21-1.68,2.04-2.15,1.03-.62,2.46-.8,3.93.03,2.27,1.29,2.95,4.05,1.52,6.58-.72,1.27-1.69,2.14-2.36,2.49l-.97-1.07c.56-.32,1.45-1.07,2.05-2.12.84-1.48.6-3.3-.96-4.18-1.51-.83-3.15-.44-4.47,1.88-.37.66-.6,1.22-.79,1.68l-5.15-3.91,3.15-5.56,1.32.75Z"></path>
<path class="cls-4" d="M107.86,179.04c3.86,2.4,5.09,5.16,3.53,7.67-1.38,2.21-4.39,2.42-8.16.12-3.8-2.37-4.87-5.31-3.44-7.62,1.49-2.39,4.47-2.42,8.08-.17ZM104.19,185.31c2.95,1.84,5.19,1.98,6.06.58.98-1.57-.38-3.46-3.28-5.27-2.79-1.74-5.07-2.17-6.06-.58-.84,1.34.19,3.34,3.28,5.27Z"></path>
<path class="cls-4" d="M186.83,96.39l-4.34,2.67,1.36,3.19c.24-.2.46-.38.89-.64.88-.54,1.87-.88,2.83-.89,1.21-.04,2.54.49,3.42,1.92,1.36,2.22.62,4.97-1.85,6.49-1.24.76-2.51,1.06-3.27,1.04l-.33-1.41c.65-.01,1.79-.23,2.82-.86,1.45-.89,2.12-2.6,1.18-4.12-.92-1.46-2.55-1.91-4.82-.51-.65.4-1.11.78-1.5,1.09l-2.62-5.91,5.45-3.34.79,1.3Z"></path>
<path class="cls-4" d="M196.22,91.09l-4.46,2.47,1.22,3.25c.25-.18.48-.36.91-.6.9-.5,1.91-.8,2.86-.77,1.21.01,2.52.6,3.34,2.07,1.27,2.28.4,5-2.13,6.4-1.28.71-2.55.95-3.31.9l-.27-1.42c.64.02,1.79-.15,2.86-.74,1.49-.83,2.23-2.51,1.36-4.07-.86-1.5-2.46-2.02-4.8-.72-.66.37-1.15.73-1.55,1.02l-2.36-6.02,5.59-3.1.74,1.33Z"></path>
<path class="cls-4" d="M309.76,66.22c.19,4.54-1.38,7.11-4.34,7.24-2.61.11-4.47-2.26-4.7-6.67-.19-4.47,1.64-7.02,4.35-7.13,2.81-.12,4.52,2.32,4.7,6.57ZM302.52,66.73c.15,3.47,1.3,5.4,2.94,5.33,1.85-.08,2.64-2.27,2.49-5.68-.14-3.28-1.07-5.4-2.94-5.33-1.58.07-2.65,2.04-2.49,5.68Z"></path>
<path class="cls-4" d="M320.29,66.18c0,4.54-1.68,7.05-4.64,7.05-2.61,0-4.38-2.44-4.42-6.86,0-4.48,1.93-6.95,4.64-6.95,2.82,0,4.42,2.51,4.42,6.76ZM313.03,66.39c0,3.47,1.07,5.45,2.72,5.44,1.85,0,2.73-2.16,2.73-5.57,0-3.29-.85-5.45-2.72-5.44-1.58,0-2.73,1.93-2.73,5.57Z"></path>
<path class="cls-4" d="M438.36,98.68c-2.18,3.98-4.86,5.37-7.46,3.95-2.29-1.25-2.66-4.25-.58-8.14,2.15-3.93,5.03-5.16,7.41-3.86,2.47,1.35,2.67,4.32.63,8.05ZM431.9,95.38c-1.67,3.04-1.68,5.29-.24,6.08,1.62.89,3.43-.58,5.07-3.57,1.58-2.88,1.88-5.18.24-6.08-1.39-.76-3.33.38-5.07,3.57Z"></path>
<path class="cls-4" d="M449.2,99.34l-4.36-2.63-2.21,2.67c.28.12.55.24.97.49.88.53,1.64,1.26,2.09,2.1.59,1.05.73,2.48-.14,3.92-1.35,2.23-4.13,2.83-6.61,1.33-1.25-.75-2.09-1.74-2.42-2.42l1.1-.94c.3.57,1.02,1.48,2.06,2.11,1.46.88,3.28.69,4.21-.84.88-1.49.53-3.14-1.76-4.52-.65-.39-1.2-.63-1.66-.83l4.05-5.04,5.47,3.3-.79,1.3Z"></path>
<path class="cls-4" d="M531.19,182.34l-.02-.04-2.28-1.33.99-1.01,2.85,1.68.8,1.32-11.41,6.94-.91-1.49,9.97-6.07Z"></path>
<path class="cls-4" d="M534.75,198.32c-3.97,2.19-6.98,1.93-8.41-.66-1.26-2.28.03-5.01,3.88-7.18,3.92-2.16,7.01-1.67,8.32.71,1.36,2.46-.06,5.08-3.78,7.13ZM531.07,192.07c-3.04,1.68-4.25,3.57-3.46,5,.89,1.62,3.21,1.35,6.2-.3,2.88-1.59,4.36-3.37,3.46-5-.76-1.38-3.01-1.46-6.2.3Z"></path>
<path class="cls-4" d="M568.05,312.49v-.04l-1.26-2.32,1.37-.35,1.57,2.91v1.54s-13.35.05-13.35.05v-1.75s11.66-.05,11.66-.05Z"></path>
<path class="cls-4" d="M567.9,327.26l.19-5.09-3.41-.64c.03.31.06.6.04,1.09-.04,1.03-.3,2.04-.83,2.85-.64,1.03-1.82,1.84-3.5,1.78-2.61-.1-4.48-2.25-4.37-5.14.05-1.46.51-2.67.95-3.3l1.36.5c-.35.54-.8,1.62-.85,2.83-.07,1.7.99,3.2,2.78,3.27,1.73.04,3-1.06,3.1-3.73.03-.76-.03-1.36-.07-1.85l6.38,1.1-.24,6.39-1.52-.06Z"></path>
<path class="cls-4" d="M528.61,426.15l.97.54.52,1.91c1.19,4.55,1.96,6.74,3.71,7.73,1.19.66,2.6.69,3.56-1.06.59-1.06.53-2.24.38-3.03l1.39.11c.24,1.19.1,2.62-.64,3.96-1.39,2.52-3.7,2.63-5.37,1.7-2.16-1.19-3.04-3.72-4.05-7.49l-.35-1.41-.04-.02-2.9,5.25-1.31-.72,4.12-7.46Z"></path>
<path class="cls-4" d="M524.83,446.25c-3.88-2.36-5.14-5.11-3.6-7.63,1.36-2.23,4.37-2.46,8.16-.2,3.83,2.33,4.93,5.26,3.52,7.58-1.46,2.41-4.44,2.47-8.07.26ZM528.43,439.95c-2.97-1.81-5.21-1.92-6.06-.52-.96,1.58.42,3.46,3.33,5.23,2.81,1.71,5.09,2.11,6.06.52.82-1.35-.23-3.34-3.34-5.23Z"></path>
<path class="cls-4" d="M443.64,517.76l.57.95-.5,1.91c-1.24,4.54-1.67,6.81-.65,8.55.7,1.16,1.91,1.89,3.62.87,1.04-.63,1.58-1.67,1.84-2.43l1.15.79c-.39,1.15-1.22,2.32-2.54,3.11-2.46,1.49-4.52.42-5.51-1.21-1.27-2.11-.77-4.74.24-8.51l.41-1.4-.02-.04-5.13,3.1-.78-1.28,7.3-4.41Z"></path>
<path class="cls-4" d="M433.52,537.24l4.47-2.44-1.2-3.26c-.25.18-.48.36-.92.59-.9.49-1.91.79-2.87.75-1.21-.02-2.51-.62-3.32-2.09-1.25-2.29-.37-5,2.17-6.39,1.28-.7,2.56-.93,3.32-.88l.26,1.42c-.64-.02-1.8.14-2.86.72-1.5.82-2.24,2.49-1.39,4.06.85,1.5,2.45,2.03,4.79.75.67-.37,1.15-.72,1.55-1.01l2.32,6.04-5.61,3.07-.73-1.33Z"></path>
</g>
</g>
<path id="Overlay" class="cls-5" d="M419.27,341.03c2.15-8.47,3.28-17.34,3.28-26.47,0-59.65-48.36-108-108-108s-108,48.36-108,108c0,9.13,1.13,18,3.28,26.47h-125.17c13,115.46,110.98,205.2,229.92,205.2s216.92-89.74,229.92-205.2h-125.22ZM407.82,341.03h-43.86c4.16-7.81,6.51-16.72,6.51-26.19,0-30.88-25.03-55.9-55.9-55.9s-55.9,25.02-55.9,55.9c0,9.46,2.35,18.38,6.51,26.19h-43.86c-2.34-8.33-3.58-17.11-3.58-26.19,0-53.48,43.36-96.84,96.84-96.84s96.84,43.36,96.84,96.84c0,9.08-1.24,17.85-3.58,26.19Z"></path>
<g id="King">
<path class="cls-7" d="M408.69,342.17h-46.62l.89-1.68c4.17-7.83,6.37-16.7,6.37-25.65,0-30.2-24.57-54.76-54.76-54.76s-54.76,24.57-54.76,54.76c0,8.95,2.2,17.82,6.37,25.65l.89,1.68h-46.62l-.23-.83c-2.41-8.57-3.63-17.48-3.63-26.5,0-54.03,43.95-97.98,97.98-97.98s97.98,43.95,97.98,97.98c0,9.01-1.22,17.93-3.63,26.5l-.23.83ZM365.83,339.88h41.12c2.2-8.11,3.31-16.53,3.31-25.05,0-52.77-42.93-95.7-95.7-95.7s-95.7,42.93-95.7,95.7c0,8.51,1.11,16.93,3.31,25.05h41.13c-3.79-7.74-5.78-16.36-5.78-25.05,0-31.45,25.59-57.04,57.04-57.04s57.04,25.59,57.04,57.04c0,8.69-2,17.31-5.78,25.05Z"></path>
<path class="cls-7" d="M299.49,261.74c-2.21.62-4.37,1.39-6.46,2.28l-12.98-38.51c2.12-.82,4.29-1.56,6.48-2.21l12.96,38.44Z"></path>
<path class="cls-7" d="M348.63,225.36l-12.98,38.48c-2.1-.87-4.26-1.62-6.48-2.23l12.97-38.44c2.2.64,4.36,1.37,6.5,2.18Z"></path>
<polygon class="cls-7" points="326.34 260.92 314.55 269.16 302.76 260.92 314.55 248.63 326.34 260.92"></polygon>
<path class="cls-7" d="M544.49,342.17h-126.69l.36-1.42c2.15-8.49,3.24-17.3,3.24-26.19,0-58.92-47.94-106.86-106.86-106.86s-106.86,47.94-106.86,106.86c0,8.9,1.09,17.71,3.24,26.19l.36,1.42h-126.64v-2.28h123.72c-1.97-8.23-2.96-16.74-2.96-25.33,0-60.18,48.96-109.15,109.14-109.15s109.15,48.96,109.15,109.15c0,8.58-1,17.1-2.96,25.33h123.76v2.28Z"></path>
<g id="King-2" data-name="King">
<path class="cls-7" d="M330.73,146.75v-10.94l-4.62,1.62-2.19,4.82-5.68-3.4v-3.04l2.83-1.82-6.52-9.33-6.52,9.33,2.83,1.82v3.04l-5.68,3.4-2.19-4.82-4.62-1.62v10.94c15.26,8.92,7.02,36.06,7.02,36.06-9.16,23.29-6.72,24.82-6.72,24.82h.01c5.18-.75,10.49-1.15,15.88-1.15s10.7.4,15.88,1.16h.01s2.42-1.54-6.72-24.83c0,0-8.25-27.15,7.02-36.06ZM320.04,186.67h-10.98s6.85-26.64-3.19-38.94l8.68-5.73,8.69,5.73c-10.05,12.29-3.2,38.94-3.2,38.94Z"></path>
<path class="cls-6" d="M320.04,186.67h-10.98s6.85-26.64-3.19-38.94l8.68-5.73,8.69,5.73c-10.05,12.29-3.2,38.94-3.2,38.94Z"></path>
</g>
</g>
<g id="Hand">
<path class="cls-7" d="M351.72,318.01c.2-2.28.2-4.57-.03-6.86-.68-7.18-3.43-14.22-8.35-20.2-6.65-8.07-15.95-12.64-25.61-13.48-2.28-.2-4.56-.19-6.85.03-7.18.68-14.22,3.43-20.2,8.35-8.07,6.65-12.64,15.95-13.48,25.6l-154.47.65c-1.89,0-3.42,1.54-3.41,3.44,0,.83.29,1.58.77,2.16.63.77,1.6,1.26,2.66,1.25l154.47-.65c.68,7.18,3.43,14.22,8.35,20.2,6.65,8.07,15.95,12.64,25.61,13.48,2.27.2,4.56.19,6.84-.03,7.18-.68,14.22-3.43,20.21-8.36,8.07-6.65,12.64-15.95,13.47-25.6ZM338.66,294.81c4,4.86,6.29,10.55,6.95,16.37l-22,.09c-.36-.98-.89-1.91-1.59-2.76-1.14-1.38-2.59-2.38-4.17-2.96l-.1-22c7.89.82,15.47,4.64,20.91,11.24ZM311.84,311.54c.1-.08.21-.16.31-.23,1.41-.97,3.24-.94,4.62-.02.33.22.63.49.89.81.08.1.16.19.21.3.97,1.42.96,3.26.02,4.64-.22.33-.48.62-.8.88-.1.08-.21.16-.31.23-1.41.97-3.24.94-4.62.02-.33-.22-.63-.49-.89-.81-.08-.1-.15-.2-.22-.31-.97-1.41-.94-3.25-.02-4.62.22-.33.49-.63.81-.89ZM283.29,311.43c.83-7.88,4.63-15.45,11.24-20.9,4.86-4,10.55-6.29,16.37-6.95l.09,22c-.98.36-1.91.89-2.76,1.59-1.39,1.15-2.38,2.58-2.96,4.17l-21.99.09ZM290.27,334.66c-4-4.86-6.29-10.55-6.95-16.37l22-.09c.36.98.89,1.91,1.59,2.76,1.14,1.38,2.59,2.38,4.17,2.96l.09,22c-7.88-.83-15.46-4.64-20.9-11.25ZM318.02,345.88l-.1-22c.98-.37,1.91-.89,2.77-1.6,1.39-1.15,2.38-2.58,2.97-4.16l21.99-.09c-.83,7.88-4.63,15.45-11.24,20.9-4.86,4-10.55,6.29-16.37,6.95Z"></path>
<circle class="cls-3" cx="314.32" cy="314.55" r="231.83"></circle>
</g>
</svg>